<svg xmlns="http://www.w3.org/2000/svg" version="1.1" xmlns:xlink="http://www.w3.org/1999/xlink" width="1500" height="214" viewBox="0 0 1500 214"><svg xml:space="preserve" width="1500" height="214" data-version="2" data-id="lg_34wizB6vaZZNh70ToN" viewBox="0 0 571 214" x="0" y="0"><rect width="100%" height="100%" fill="transparent"></rect><rect width="441.38" height="217.51" x="-220.69" y="-108.75" fill="#fff" rx="0" ry="0" transform="translate(210.1 106.97)scale(.8773)"></rect><path fill="#001f3f" d="M460.346 1.846q-1.136 0-2.283.033v-.033H22.683c-9.492 0-17.179 7.687-17.179 17.18v175.95c0 9.491 7.687 17.179 17.18 17.179h435.379v-.034q1.147.034 2.283.034c58.078 0 105.15-47.082 105.15-105.16S518.423 1.846 460.345 1.846m-58.479 170.78c0 15.894-12.883 28.778-28.777 28.778H28.655a11.587 11.587 0 0 1-11.609-11.598V24.195c0-6.406 5.192-11.598 11.609-11.598h344.424c15.9 0 28.788 12.89 28.788 28.788z"></path><path fill="#001f3f" d="M41.98 138.596v-63.6h25.44v12.4H54.77v10.12h12v12.24h-12v28.84Z"></path><rect width="25.44" height="63.6" x="-12.72" y="-31.8" fill="none" rx="0" ry="0" transform="translate(55.2 107.3)"></rect><path fill="#001f3f" d="M71.22 81.076v-10.77h12.93v10.77Zm0 57.52v-54.2h12.93v54.2Z"></path><rect width="12.93" height="68.29" x="-6.46" y="-34.15" fill="none" rx="0" ry="0" transform="translate(78.19 104.95)"></rect><path fill="#001f3f" d="M100.41 139.176q-5.24 0-7.06-2.23-1.83-2.22-1.83-6.81v-33.78h-3.65v-9.87h3.65v-11.49h12.58v11.49h3.65v9.87h-3.65v30.75q0 1.34.43 1.88.43.54 1.66.54.87 0 1.56-.15v8.82q-.44.15-2.71.56-2.28.42-4.63.42"></path><rect width="19.88" height="64.18" x="-9.94" y="-32.09" fill="none" rx="0" ry="0" transform="translate(98.31 107.59)"></rect><path fill="#001f3f" d="M111.86 138.596v-54.2h12.94v6.9q.72-3.11 2.69-5.29 1.97-2.19 5.48-2.19 5.63 0 8.18 3.47t2.55 9.5v41.81h-12.76v-40.47q0-1.59-.65-2.95-.65-1.35-2.24-1.35-1.48 0-2.18 1.03-.71 1.03-.89 2.57-.18 1.53-.18 3.05v38.12Z"></path><rect width="31.84" height="54.78" x="-15.92" y="-27.39" fill="none" rx="0" ry="0" transform="translate(128.28 111.7)"></rect><path fill="#001f3f" d="M163.93 139.176q-5.78 0-9.21-2.17-3.43-2.17-4.92-6.25-1.48-4.09-1.48-9.83v-21.79q0-7.55 4.34-11.43 4.33-3.89 11.92-3.89 15.61 0 15.61 15.32v3.94q0 7.15-.14 9.61h-18.79v10.48q0 1.45.18 2.84t.81 2.29q.63.9 2.04.9 2.03 0 2.53-1.75.51-1.75.51-4.57v-5.2h12.86v3.07q0 6.07-1.5 10.17t-5.06 6.18q-3.56 2.08-9.7 2.08m-2.74-32.92h6.14v-7.3q0-2.93-.72-4.21-.73-1.28-2.17-1.28-1.56 0-2.4 1.23-.85 1.23-.85 4.26Z"></path><rect width="31.87" height="55.36" x="-15.94" y="-27.68" fill="none" rx="0" ry="0" transform="translate(164.75 112)"></rect><path fill="#001f3f" d="M199.74 139.176q-16.04 0-16.04-16.26v-4.3h13v6.36q0 1.84.73 2.89.72 1.04 2.31 1.04 2.82 0 2.82-4.22 0-3.54-1.48-5.3-1.48-1.75-3.62-3.37l-6.9-5.32q-3.25-2.53-4.95-5.34-1.7-2.82-1.7-7.84 0-4.67 2.23-7.7 2.22-3.04 5.89-4.52 3.66-1.48 7.93-1.48 15.75 0 15.75 15.72v1.01h-13.37v-2.06q0-1.62-.56-3.14t-2.18-1.52q-2.75 0-2.75 2.89 0 2.93 2.31 4.59l8.02 5.85q3.76 2.71 6.31 6.43 2.55 3.73 2.55 9.9 0 7.67-4.36 11.68-4.35 4.01-11.94 4.01"></path><rect width="32.34" height="55.36" x="-16.17" y="-27.68" fill="none" rx="0" ry="0" transform="translate(200.37 112)"></rect><path fill="#001f3f" d="M234.86 139.176q-16.04 0-16.04-16.26v-4.3h13.01v6.36q0 1.84.72 2.89.72 1.04 2.31 1.04 2.82 0 2.82-4.22 0-3.54-1.48-5.3-1.48-1.75-3.62-3.37l-6.9-5.32q-3.25-2.53-4.95-5.34-1.7-2.82-1.7-7.84 0-4.67 2.23-7.7 2.22-3.04 5.89-4.52 3.66-1.48 7.93-1.48 15.75 0 15.75 15.72v1.01h-13.37v-2.06q0-1.62-.56-3.14t-2.18-1.52q-2.75 0-2.75 2.89 0 2.93 2.31 4.59l8.02 5.85q3.76 2.71 6.31 6.43 2.55 3.73 2.55 9.9 0 7.67-4.36 11.68-4.35 4.01-11.94 4.01"></path><rect width="32.34" height="55.36" x="-16.17" y="-27.68" fill="none" rx="0" ry="0" transform="translate(235.49 112)"></rect><path fill="#ff851b" d="M272.69 138.596v-63.6h12.65v22.73h6v-22.73h12.64v63.6h-12.64v-28.84h-6v28.84Z"></path><rect width="31.29" height="63.6" x="-15.64" y="-31.8" fill="none" rx="0" ry="0" transform="translate(288.83 107.3)"></rect><path fill="#ff851b" d="M319.85 139.176q-4.34 0-6.64-1.81-2.29-1.81-3.12-5.04-.83-3.23-.83-7.57v-40.36h13.01v38.84q0 3.25.5 4.54.51 1.28 2.39 1.28 2.02 0 2.54-1.81.53-1.8.53-4.66v-38.19h12.9v54.2h-12.94v-5.78q-1.23 3.1-2.94 4.73-1.72 1.63-5.4 1.63"></path><rect width="31.87" height="54.78" x="-15.94" y="-27.39" fill="none" rx="0" ry="0" transform="translate(325.7 112.29)"></rect><path fill="#ff851b" d="M367.97 139.176q-3.18 0-5.16-1.58-1.99-1.57-3.18-4.78v5.78h-13.15v-63.6h13.15v15.18q1.19-3 3.3-4.68 2.12-1.68 6.06-1.68 5.31 0 7.49 3.87 2.19 3.86 2.19 10.11v26.67q0 4.16-1.14 7.5t-3.5 5.27q-2.37 1.94-6.06 1.94m-5.34-10.08q2.06 0 2.49-2.03.43-2.02.43-4.98v-21.18q0-3-.43-5-.43-2.01-2.46-2.01-2.09 0-2.56 2.04-.47 2.05-.47 4.97v21.18q0 2.92.47 4.96.47 2.05 2.53 2.05"></path><rect width="32.19" height="64.18" x="-16.09" y="-32.09" fill="none" rx="0" ry="0" transform="translate(363.07 107.59)"></rect><path fill="#ff851b" d="M514.824 81.158a3.543 3.543 0 0 1 3.543-3.539h.003c3.91 0 7.08 3.173 7.08 7.082v28.336a7.078 7.078 0 0 1-7.083 7.071 3.54 3.54 0 0 1-3.543-3.537z"></path><path fill="#ff851b" d="M507.743 127.194a7.085 7.085 0 0 0 7.086-7.086V77.621a7.088 7.088 0 0 0-7.086-7.085 3.543 3.543 0 0 0-3.537 3.543v49.573a3.543 3.543 0 0 0 3.537 3.542m-61.369-10.62a3.54 3.54 0 0 1-3.543 3.534h-.007a7.078 7.078 0 0 1-7.077-7.076V84.697a7.087 7.087 0 0 1 7.084-7.08 3.545 3.545 0 0 1 3.543 3.543z"></path><path fill="#ff851b" d="M453.45 70.536a7.087 7.087 0 0 0-7.083 7.08v42.492a7.085 7.085 0 0 0 7.084 7.086 3.545 3.545 0 0 0 3.543-3.539V74.083a3.547 3.547 0 0 0-3.543-3.547m-23.608 23.61h5.9v9.44h-5.9zm95.612 0h5.9v9.44h-5.9zm-32.015 9.44.33 2.094zm0 0h10.76v-9.44h-12.219z"></path><path fill="#ff851b" d="M500.004 103.59v3.185c0 .81-.156 1.585-.457 2.286a5.89 5.89 0 0 1-1.295 1.947v.016a6.025 6.025 0 0 1-1.945 1.293l-8.125 3.366a6.096 6.096 0 0 0-1.947 1.299v.013a6.004 6.004 0 0 0-1.75 4.238v20.962h-20.868v-26.859c-3.353-8.084-3.106-16.766 0-24.263a3.652 3.652 0 0 1 5.172 0V89.02a5.487 5.487 0 0 1 7.763 0v-1.29a5.485 5.485 0 0 1 7.765 0v1.09a4.799 4.799 0 0 1 6.794 0l.838 5.324 1.49 9.446z"></path><path fill="#ff851b" d="m491.977 94.144-.864-5.583c0-3.49 2.827-6.32 6.315-6.32v-.003c0 4.201.807 8.2 2.206 11.907h-7.657zm-29.442 0h-5.543v9.446h4.226a31.717 31.717 0 0 1 1.317-9.446"></path></svg></svg>